<svg xmlns="http://www.w3.org/2000/svg" viewBox="0 0 200 200">
  <!-- Definiciones de gradientes -->
  <defs>
    <linearGradient id="gradientMain" x1="0%" y1="0%" x2="100%" y2="100%">
      <stop offset="0%" stop-color="#3a86ff" />
      <stop offset="100%" stop-color="#5e60ce" />
    </linearGradient>
    <linearGradient id="gradientAccent" x1="0%" y1="0%" x2="100%" y2="0%">
      <stop offset="0%" stop-color="#7209b7" />
      <stop offset="100%" stop-color="#560bad" />
    </linearGradient>
    <linearGradient id="gradientDetail" x1="0%" y1="0%" x2="100%" y2="100%">
      <stop offset="0%" stop-color="#f72585" />
      <stop offset="100%" stop-color="#b5179e" />
    </linearGradient>
    <filter id="glow" x="-20%" y="-20%" width="140%" height="140%">
      <feGaussianBlur stdDeviation="4" result="blur"/>
      <feComposite in="SourceGraphic" in2="blur" operator="over"/>
    </filter>
  </defs>
  
  <!-- D principal con forma moderna -->
  <path d="M45 40 
           L90 40
           C140 40, 160 60, 160 100
           C160 140, 140 160, 90 160
           L45 160
           Z" 
        fill="url(#gradientMain)" />
  
  <!-- Forma decorativa interior -->
  <path d="M70 60
           L90 60
           C120 60, 135 75, 135 100
           C135 125, 120 140, 90 140
           L70 140
           Z"
        fill="none"
        stroke="url(#gradientAccent)"
        stroke-width="4"/>
  
  <!-- Elemento decorativo adicional -->
  <path d="M58 50 L58 150" 
        stroke="#f72585" 
        stroke-width="4" 
        stroke-linecap="round"/>
  
  <!-- Círculos decorativos -->
  <circle cx="58" cy="50" r="6" fill="url(#gradientDetail)" filter="url(#glow)"/>
  <circle cx="58" cy="150" r="6" fill="url(#gradientDetail)" filter="url(#glow)"/>
  
  <!-- Elemento de brillo -->
  <ellipse cx="120" cy="85" rx="15" ry="6" fill="white" opacity="0.1" transform="rotate(-30, 120, 85)"/>
</svg>